<svg
  aria-hidden="true"
  fill="none"
  shape-rendering="auto"
  viewBox="0 0 100 100"
  xmlns="http://www.w3.org/2000/svg"
>
  <!-- Generated by DiceBear (https://www.dicebear.com) -->
  <metadata
    xmlns:dc="http://purl.org/dc/elements/1.1/"
    xmlns:dcterms="http://purl.org/dc/terms/"
    xmlns:rdf="http://www.w3.org/1999/02/22-rdf-syntax-ns#"
    xmlns:xsi="http://www.w3.org/2001/XMLSchema-instance"
  >
    <rdf:RDF
      ><rdf:Description
        ><dc:title>Critters</dc:title><dc:creator>DiceBear</dc:creator
        ><dc:source xsi:type="dcterms:URI">https://www.dicebear.com</dc:source
        ><dcterms:license xsi:type="dcterms:URI"
          >https://creativecommons.org/publicdomain/zero/1.0/</dcterms:license
        ><dc:rights
          >“Critters” (https://www.dicebear.com) by “DiceBear”, licensed under
          “CC0 1.0” (https://creativecommons.org/publicdomain/zero/1.0/)</dc:rights
        ></rdf:Description
      ></rdf:RDF
    >
  </metadata>
  <defs>
    <g id="top-spikes-fb41bd94">
      <g opacity=".15" transform="translate(-23 -6.5)">
        <path
          d="m38 50 4-32 4 30Zm8-2 4-36 4 36Zm8 0 4-30 4 32Z"
          fill="#1e293b"
        />
      </g>
      <path
        d="m12 40 4-32 4 30Zm8-2 4-36 4 36Zm8 0 4-30 4 32Z"
        fill="#fda4af"
      />
    </g>
    <clipPath id="dbcrb-wedge">
      <path d="M20 106v-6l10-70q1-6 8-6h24q7 0 8 6l10 70v6Z" />
    </clipPath>
    <g id="body-wedge-fb41bd94">
      <g class="dbcr-t">
        <use href="#top-spikes-fb41bd94" transform="translate(26 2)" />
      </g>
      <path
        d="M23 109.5v-6l10-70q1-6 8-6h24q7 0 8 6l10 70v6Z"
        fill="#1e293b"
        opacity=".15"
      />
      <path d="M20 106v-6l10-70q1-6 8-6h24q7 0 8 6l10 70v6Z" fill="#fca5a5" />
      <g clip-path="url(#dbcrb-wedge)">
        <path
          d="M20 106v-6l10-70q1-6 8-6h24q7 0 8 6l10 70v6Zm3.5 4.5v-6l10-70q1-6 8-6h24q7 0 8 6l10 70v6Z"
          fill="#ffffff"
          fill-rule="evenodd"
          opacity=".16"
        />
        <path
          d="M20 106v-6l10-70q1-6 8-6h24q7 0 8 6l10 70v6Zm-3.5-4.5v-6l10-70q1-6 8-6h24q7 0 8 6l10 70v6Z"
          fill="#1e293b"
          fill-rule="evenodd"
          opacity=".1"
        />
      </g>
    </g>
    <g id="eyes-round-fb41bd94">
      <g class="dbcr-eb">
        <circle cx="10" cy="13" fill="#ffffff" r="7" />
        <circle cx="10" cy="13" fill="#1e293b" r="3" />
      </g>
      <g class="dbcr-eb">
        <circle cx="36" cy="13" fill="#ffffff" r="7" />
        <circle cx="36" cy="13" fill="#1e293b" r="3" />
      </g>
    </g>
    <g id="mouth-catMouth-fb41bd94">
      <path
        d="M6 6q4 4 8 0 4 4 8 0"
        stroke="#1e293b"
        stroke-linecap="round"
        stroke-linejoin="round"
        stroke-width="3"
      />
    </g>
    <g id="animation-none-fb41bd94"></g>
    <clipPath id="clip-fb41bd94">
      <rect height="100" rx="0" ry="0" width="100" />
    </clipPath>
  </defs>
  <g clip-path="url(#clip-fb41bd94)">
    <rect fill="#a21caf" height="100" width="100" />
    <g class="dbcr-c">
      <use href="#body-wedge-fb41bd94" />
      <use href="#eyes-round-fb41bd94" transform="translate(27 36)" />
      <use href="#mouth-catMouth-fb41bd94" transform="translate(36 60)" />
    </g>
    <use href="#animation-none-fb41bd94" />
  </g>
</svg>
