<svg
  aria-hidden="true"
  fill="none"
  shape-rendering="auto"
  viewBox="0 0 100 100"
  xmlns="http://www.w3.org/2000/svg"
>
  <!-- Generated by DiceBear (https://www.dicebear.com) -->
  <metadata
    xmlns:dc="http://purl.org/dc/elements/1.1/"
    xmlns:dcterms="http://purl.org/dc/terms/"
    xmlns:rdf="http://www.w3.org/1999/02/22-rdf-syntax-ns#"
    xmlns:xsi="http://www.w3.org/2001/XMLSchema-instance"
  >
    <rdf:RDF
      ><rdf:Description
        ><dc:title>Critters</dc:title><dc:creator>DiceBear</dc:creator
        ><dc:source xsi:type="dcterms:URI">https://www.dicebear.com</dc:source
        ><dcterms:license xsi:type="dcterms:URI"
          >https://creativecommons.org/publicdomain/zero/1.0/</dcterms:license
        ><dc:rights
          >“Critters” (https://www.dicebear.com) by “DiceBear”, licensed under
          “CC0 1.0” (https://creativecommons.org/publicdomain/zero/1.0/)</dc:rights
        ></rdf:Description
      ></rdf:RDF
    >
  </metadata>
  <defs>
    <g id="top-antennae-95c5ca6f">
      <g opacity=".15" transform="translate(-23 -6.5)">
        <path
          d="m43 50-3-29m17 29 3-29"
          stroke="#1e293b"
          stroke-linecap="round"
          stroke-linejoin="round"
          stroke-width="4"
        />
        <circle cx="39.5" cy="15.5" fill="#1e293b" r="4.5" />
        <circle cx="60.5" cy="15.5" fill="#1e293b" r="4.5" />
      </g>
      <path
        d="m17 40-3-29m17 29 3-29"
        stroke="#bef264"
        stroke-linecap="round"
        stroke-linejoin="round"
        stroke-width="4"
      />
      <circle cx="13.5" cy="5.5" fill="#bef264" r="4.5" />
      <circle cx="34.5" cy="5.5" fill="#bef264" r="4.5" />
    </g>
    <clipPath id="dbcrb-wedgeInv">
      <path d="M26 106v-6l-8-64q-1-8 6-8h52q7 0 8 8l-10 64v6Z" />
    </clipPath>
    <g id="body-wedgeInv-95c5ca6f">
      <g class="dbcr-t">
        <use href="#top-antennae-95c5ca6f" transform="translate(26 5.5)" />
      </g>
      <path
        d="M29 109.5v-6l-8-64q-1-8 6-8h52q7 0 8 8l-10 64v6Z"
        fill="#1e293b"
        opacity=".15"
      />
      <path d="M26 106v-6l-8-64q-1-8 6-8h52q7 0 8 8l-10 64v6Z" fill="#7dd3fc" />
      <g clip-path="url(#dbcrb-wedgeInv)">
        <path
          d="M26 106v-6l-8-64q-1-8 6-8h52q7 0 8 8l-10 64v6Zm3.5 4.5v-6l-8-64q-1-8 6-8h52q7 0 8 8l-10 64v6Z"
          fill="#ffffff"
          fill-rule="evenodd"
          opacity=".16"
        />
        <path
          d="M26 106v-6l-8-64q-1-8 6-8h52q7 0 8 8l-10 64v6Zm-3.5-4.5v-6l-8-64q-1-8 6-8h52q7 0 8 8l-10 64v6Z"
          fill="#1e293b"
          fill-rule="evenodd"
          opacity=".1"
        />
      </g>
    </g>
    <g id="pattern-bars-95c5ca6f">
      <rect
        fill="#ffffff"
        height="7"
        opacity=".18"
        rx="3.5"
        width="28"
        x="2"
        y="2"
      />
      <rect
        fill="#ffffff"
        height="7"
        opacity=".18"
        rx="3.5"
        width="28"
        x="2"
        y="13"
      />
    </g>
    <g id="cheeks-blush-95c5ca6f">
      <circle cx="4" cy="5" fill="#ffffff" opacity=".3" r="3.5" />
      <circle cx="40" cy="5" fill="#ffffff" opacity=".3" r="3.5" />
    </g>
    <g id="eyes-happy-95c5ca6f">
      <g class="dbcr-eb">
        <path
          d="M3 16q7-10 14 0"
          stroke="#1e293b"
          stroke-linecap="round"
          stroke-linejoin="round"
          stroke-width="3.5"
        />
      </g>
      <g class="dbcr-eb">
        <path
          d="M29 16q7-10 14 0"
          stroke="#1e293b"
          stroke-linecap="round"
          stroke-linejoin="round"
          stroke-width="3.5"
        />
      </g>
    </g>
    <g id="mouth-smile-95c5ca6f">
      <path
        d="M4 4q10 10 20 0"
        stroke="#1e293b"
        stroke-linecap="round"
        stroke-linejoin="round"
        stroke-width="3.5"
      />
    </g>
    <g id="animation-none-95c5ca6f"></g>
    <clipPath id="clip-95c5ca6f">
      <rect height="100" rx="0" ry="0" width="100" />
    </clipPath>
  </defs>
  <g clip-path="url(#clip-95c5ca6f)">
    <rect fill="#1e293b" height="100" width="100" />
    <g class="dbcr-c">
      <use href="#body-wedgeInv-95c5ca6f" />
      <use href="#pattern-bars-95c5ca6f" transform="translate(34 75)" />
      <use href="#cheeks-blush-95c5ca6f" transform="translate(28 53)" />
      <use href="#eyes-happy-95c5ca6f" transform="translate(27 36)" />
      <use href="#mouth-smile-95c5ca6f" transform="translate(36 60)" />
    </g>
    <use href="#animation-none-95c5ca6f" />
  </g>
</svg>
