<svg
  aria-hidden="true"
  fill="none"
  shape-rendering="auto"
  viewBox="0 0 100 100"
  xmlns="http://www.w3.org/2000/svg"
>
  <!-- Generated by DiceBear (https://www.dicebear.com) -->
  <metadata
    xmlns:dc="http://purl.org/dc/elements/1.1/"
    xmlns:dcterms="http://purl.org/dc/terms/"
    xmlns:rdf="http://www.w3.org/1999/02/22-rdf-syntax-ns#"
    xmlns:xsi="http://www.w3.org/2001/XMLSchema-instance"
  >
    <rdf:RDF
      ><rdf:Description
        ><dc:title>Critters</dc:title><dc:creator>DiceBear</dc:creator
        ><dc:source xsi:type="dcterms:URI">https://www.dicebear.com</dc:source
        ><dcterms:license xsi:type="dcterms:URI"
          >https://creativecommons.org/publicdomain/zero/1.0/</dcterms:license
        ><dc:rights
          >“Critters” (https://www.dicebear.com) by “DiceBear”, licensed under
          “CC0 1.0” (https://creativecommons.org/publicdomain/zero/1.0/)</dc:rights
        ></rdf:Description
      ></rdf:RDF
    >
  </metadata>
  <defs>
    <g id="top-antennae-813a41c1">
      <g opacity=".15" transform="translate(-23 -6.5)">
        <path
          d="m43 50-3-29m17 29 3-29"
          stroke="#1e293b"
          stroke-linecap="round"
          stroke-linejoin="round"
          stroke-width="4"
        />
        <circle cx="39.5" cy="15.5" fill="#1e293b" r="4.5" />
        <circle cx="60.5" cy="15.5" fill="#1e293b" r="4.5" />
      </g>
      <path
        d="m17 40-3-29m17 29 3-29"
        stroke="#fcd34d"
        stroke-linecap="round"
        stroke-linejoin="round"
        stroke-width="4"
      />
      <circle cx="13.5" cy="5.5" fill="#fcd34d" r="4.5" />
      <circle cx="34.5" cy="5.5" fill="#fcd34d" r="4.5" />
    </g>
    <clipPath id="dbcrb-blob">
      <path
        d="M14 106V64c0-12 4-24 12-28 6-3 6-10 14-12 6-2 8 3 12 2s3-4 10-3c8 1 6 9 12 13 8 5 12 16 12 28v42Z"
      />
    </clipPath>
    <g id="body-blob-813a41c1">
      <g class="dbcr-t">
        <use href="#top-antennae-813a41c1" transform="translate(26 2)" />
      </g>
      <path
        d="M17 109.5v-42c0-12 4-24 12-28 6-3 6-10 14-12 6-2 8 3 12 2s3-4 10-3c8 1 6 9 12 13 8 5 12 16 12 28v42Z"
        fill="#1e293b"
        opacity=".15"
      />
      <path
        d="M14 106V64c0-12 4-24 12-28 6-3 6-10 14-12 6-2 8 3 12 2s3-4 10-3c8 1 6 9 12 13 8 5 12 16 12 28v42Z"
        fill="#5eead4"
      />
      <g clip-path="url(#dbcrb-blob)">
        <path
          d="M14 106V64c0-12 4-24 12-28 6-3 6-10 14-12 6-2 8 3 12 2s3-4 10-3c8 1 6 9 12 13 8 5 12 16 12 28v42Zm3.5 4.5v-42c0-12 4-24 12-28 6-3 6-10 14-12 6-2 8 3 12 2s3-4 10-3c8 1 6 9 12 13 8 5 12 16 12 28v42Z"
          fill="#ffffff"
          fill-rule="evenodd"
          opacity=".16"
        />
        <path
          d="M14 106V64c0-12 4-24 12-28 6-3 6-10 14-12 6-2 8 3 12 2s3-4 10-3c8 1 6 9 12 13 8 5 12 16 12 28v42Zm-3.5-4.5v-42c0-12 4-24 12-28 6-3 6-10 14-12 6-2 8 3 12 2s3-4 10-3c8 1 6 9 12 13 8 5 12 16 12 28v42Z"
          fill="#1e293b"
          fill-rule="evenodd"
          opacity=".1"
        />
      </g>
    </g>
    <g id="cheeks-freckles-813a41c1">
      <circle cx="2" cy="4" fill="#ffffff" opacity=".35" r="1.4" />
      <circle cx="6" cy="2" fill="#ffffff" opacity=".35" r="1.4" />
      <circle cx="4" cy="6.5" fill="#ffffff" opacity=".35" r="1.4" />
      <circle cx="42" cy="4" fill="#ffffff" opacity=".35" r="1.4" />
      <circle cx="38" cy="2" fill="#ffffff" opacity=".35" r="1.4" />
      <circle cx="40" cy="6.5" fill="#ffffff" opacity=".35" r="1.4" />
    </g>
    <g id="eyes-trio-813a41c1">
      <g class="dbcr-eb">
        <circle cx="9" cy="14" fill="#ffffff" r="5.5" />
        <circle cx="9" cy="14" fill="#1e293b" r="2.2" />
      </g>
      <g class="dbcr-eb">
        <circle cx="23" cy="8" fill="#ffffff" r="5.5" />
        <circle cx="23" cy="8" fill="#1e293b" r="2.2" />
      </g>
      <g class="dbcr-eb">
        <circle cx="37" cy="14" fill="#ffffff" r="5.5" />
        <circle cx="37" cy="14" fill="#1e293b" r="2.2" />
      </g>
    </g>
    <g id="mouth-smirk-813a41c1">
      <path
        d="M6 8q10 3 16-4"
        stroke="#1e293b"
        stroke-linecap="round"
        stroke-linejoin="round"
        stroke-width="3.5"
      />
    </g>
    <g id="animation-none-813a41c1"></g>
    <clipPath id="clip-813a41c1">
      <rect height="100" rx="0" ry="0" width="100" />
    </clipPath>
  </defs>
  <g clip-path="url(#clip-813a41c1)">
    <rect fill="#0369a1" height="100" width="100" />
    <g class="dbcr-c">
      <use href="#body-blob-813a41c1" />
      <use href="#cheeks-freckles-813a41c1" transform="translate(28 53)" />
      <use href="#eyes-trio-813a41c1" transform="translate(27 36)" />
      <use href="#mouth-smirk-813a41c1" transform="translate(36 60)" />
    </g>
    <use href="#animation-none-813a41c1" />
  </g>
</svg>
