<svg
  aria-hidden="true"
  fill="none"
  shape-rendering="auto"
  viewBox="0 0 100 100"
  xmlns="http://www.w3.org/2000/svg"
>
  <!-- Generated by DiceBear (https://www.dicebear.com) -->
  <metadata
    xmlns:dc="http://purl.org/dc/elements/1.1/"
    xmlns:dcterms="http://purl.org/dc/terms/"
    xmlns:rdf="http://www.w3.org/1999/02/22-rdf-syntax-ns#"
    xmlns:xsi="http://www.w3.org/2001/XMLSchema-instance"
  >
    <rdf:RDF
      ><rdf:Description
        ><dc:title>Critters</dc:title><dc:creator>DiceBear</dc:creator
        ><dc:source xsi:type="dcterms:URI">https://www.dicebear.com</dc:source
        ><dcterms:license xsi:type="dcterms:URI"
          >https://creativecommons.org/publicdomain/zero/1.0/</dcterms:license
        ><dc:rights
          >“Critters” (https://www.dicebear.com) by “DiceBear”, licensed under
          “CC0 1.0” (https://creativecommons.org/publicdomain/zero/1.0/)</dc:rights
        ></rdf:Description
      ></rdf:RDF
    >
  </metadata>
  <defs>
    <clipPath id="dbcrb-tilt">
      <path d="M22 106V64c0-30 10-44 24-42 22 2 32 18 32 78v6Z" />
    </clipPath>
    <g id="body-tilt-ee3f6a86">
      <path
        d="M25 109.5v-42c0-30 10-44 24-42 22 2 32 18 32 78v6Z"
        fill="#1e293b"
        opacity=".15"
      />
      <path
        d="M22 106V64c0-30 10-44 24-42 22 2 32 18 32 78v6Z"
        fill="#6ee7b9"
      />
      <g clip-path="url(#dbcrb-tilt)">
        <path
          d="M22 106V64c0-30 10-44 24-42 22 2 32 18 32 78v6Zm3.5 4.5v-42c0-30 10-44 24-42 22 2 32 18 32 78v6Z"
          fill="#ffffff"
          fill-rule="evenodd"
          opacity=".16"
        />
        <path
          d="M22 106V64c0-30 10-44 24-42 22 2 32 18 32 78v6Zm-3.5-4.5v-42c0-30 10-44 24-42 22 2 32 18 32 78v6Z"
          fill="#1e293b"
          fill-rule="evenodd"
          opacity=".1"
        />
      </g>
    </g>
    <g id="pattern-chevron-ee3f6a86">
      <path
        d="m2 9 4.5-5L11 9l4.5-5L20 9l4.5-5L29 9"
        opacity=".2"
        stroke="#ffffff"
        stroke-linecap="round"
        stroke-linejoin="round"
        stroke-width="3"
      />
    </g>
    <g id="eyes-dots-ee3f6a86">
      <g class="dbcr-eb"><circle cx="10" cy="13" fill="#1e293b" r="4" /></g>
      <g class="dbcr-eb"><circle cx="36" cy="13" fill="#1e293b" r="4" /></g>
    </g>
    <g id="mouth-wavy-ee3f6a86">
      <path
        d="M3 7q4-4 8 0t8 0 8 0"
        stroke="#1e293b"
        stroke-linecap="round"
        stroke-linejoin="round"
        stroke-width="3"
      />
    </g>
    <g id="animation-none-ee3f6a86"></g>
    <clipPath id="clip-ee3f6a86">
      <rect height="100" rx="0" ry="0" width="100" />
    </clipPath>
  </defs>
  <g clip-path="url(#clip-ee3f6a86)">
    <rect fill="#be123c" height="100" width="100" />
    <g class="dbcr-c">
      <use href="#body-tilt-ee3f6a86" />
      <use href="#pattern-chevron-ee3f6a86" transform="translate(34 75)" />
      <use href="#eyes-dots-ee3f6a86" transform="translate(27 36)" />
      <use href="#mouth-wavy-ee3f6a86" transform="translate(36 60)" />
    </g>
    <use href="#animation-none-ee3f6a86" />
  </g>
</svg>
