<svg
  aria-hidden="true"
  fill="none"
  shape-rendering="auto"
  viewBox="0 0 100 100"
  xmlns="http://www.w3.org/2000/svg"
>
  <!-- Generated by DiceBear (https://www.dicebear.com) -->
  <metadata
    xmlns:dc="http://purl.org/dc/elements/1.1/"
    xmlns:dcterms="http://purl.org/dc/terms/"
    xmlns:rdf="http://www.w3.org/1999/02/22-rdf-syntax-ns#"
    xmlns:xsi="http://www.w3.org/2001/XMLSchema-instance"
  >
    <rdf:RDF
      ><rdf:Description
        ><dc:title>Critters</dc:title><dc:creator>DiceBear</dc:creator
        ><dc:source xsi:type="dcterms:URI">https://www.dicebear.com</dc:source
        ><dcterms:license xsi:type="dcterms:URI"
          >https://creativecommons.org/publicdomain/zero/1.0/</dcterms:license
        ><dc:rights
          >“Critters” (https://www.dicebear.com) by “DiceBear”, licensed under
          “CC0 1.0” (https://creativecommons.org/publicdomain/zero/1.0/)</dc:rights
        ></rdf:Description
      ></rdf:RDF
    >
  </metadata>
  <defs>
    <g id="top-earsRound-f132a34c">
      <g opacity=".15" transform="translate(-23 -6.5)">
        <path d="M31 20h8v30h-8zm30 0h8v30h-8z" fill="#1e293b" />
        <circle cx="35" cy="21" fill="#1e293b" r="9" />
        <circle cx="65" cy="21" fill="#1e293b" r="9" />
      </g>
      <path d="M5 10h8v30H5zm30 0h8v30h-8z" fill="#e2e8f0" />
      <circle cx="9" cy="11" fill="#e2e8f0" r="9" />
      <circle cx="39" cy="11" fill="#e2e8f0" r="9" />
    </g>
    <clipPath id="dbcrb-block">
      <path d="M12 106V36q0-8 8-8h60q8 0 8 8v70Z" />
    </clipPath>
    <g id="body-block-f132a34c">
      <g class="dbcr-t">
        <use href="#top-earsRound-f132a34c" transform="translate(26 5.5)" />
      </g>
      <path
        d="M15 109.5v-70q0-8 8-8h60q8 0 8 8v70Z"
        fill="#1e293b"
        opacity=".15"
      />
      <path d="M12 106V36q0-8 8-8h60q8 0 8 8v70Z" fill="#5eead4" />
      <g clip-path="url(#dbcrb-block)">
        <path
          d="M12 106V36q0-8 8-8h60q8 0 8 8v70Zm3.5 4.5v-70q0-8 8-8h60q8 0 8 8v70Z"
          fill="#ffffff"
          fill-rule="evenodd"
          opacity=".16"
        />
        <path
          d="M12 106V36q0-8 8-8h60q8 0 8 8v70Zm-3.5-4.5v-70q0-8 8-8h60q8 0 8 8v70Z"
          fill="#1e293b"
          fill-rule="evenodd"
          opacity=".1"
        />
      </g>
    </g>
    <g id="eyes-uneven-f132a34c">
      <g class="dbcr-eb">
        <circle cx="10" cy="12" fill="#ffffff" r="8" />
        <circle cx="10" cy="12" fill="#1e293b" r="3.5" />
      </g>
      <g class="dbcr-eb">
        <circle cx="36" cy="14" fill="#ffffff" r="5.5" />
        <circle cx="36" cy="14" fill="#1e293b" r="2.2" />
      </g>
    </g>
    <g id="mouth-laugh-f132a34c">
      <path d="M4 3a10 10 0 0 0 20 0Z" fill="#1e293b" />
      <path d="M5.5 3h17v3h-17Z" fill="#ffffff" />
    </g>
    <g id="animation-none-f132a34c"></g>
    <clipPath id="clip-f132a34c">
      <rect height="100" rx="0" ry="0" width="100" />
    </clipPath>
  </defs>
  <g clip-path="url(#clip-f132a34c)">
    <rect fill="#0f766e" height="100" width="100" />
    <g class="dbcr-c">
      <use href="#body-block-f132a34c" />
      <use href="#eyes-uneven-f132a34c" transform="translate(27 36)" />
      <use href="#mouth-laugh-f132a34c" transform="translate(36 60)" />
    </g>
    <use href="#animation-none-f132a34c" />
  </g>
</svg>
