<svg
  aria-hidden="true"
  fill="none"
  shape-rendering="auto"
  viewBox="0 0 100 100"
  xmlns="http://www.w3.org/2000/svg"
>
  <!-- Generated by DiceBear (https://www.dicebear.com) -->
  <metadata
    xmlns:dc="http://purl.org/dc/elements/1.1/"
    xmlns:dcterms="http://purl.org/dc/terms/"
    xmlns:rdf="http://www.w3.org/1999/02/22-rdf-syntax-ns#"
    xmlns:xsi="http://www.w3.org/2001/XMLSchema-instance"
  >
    <rdf:RDF
      ><rdf:Description
        ><dc:title>Critters</dc:title><dc:creator>DiceBear</dc:creator
        ><dc:source xsi:type="dcterms:URI">https://www.dicebear.com</dc:source
        ><dcterms:license xsi:type="dcterms:URI"
          >https://creativecommons.org/publicdomain/zero/1.0/</dcterms:license
        ><dc:rights
          >“Critters” (https://www.dicebear.com) by “DiceBear”, licensed under
          “CC0 1.0” (https://creativecommons.org/publicdomain/zero/1.0/)</dc:rights
        ></rdf:Description
      ></rdf:RDF
    >
  </metadata>
  <defs>
    <g id="top-antenna-80380197">
      <g opacity=".15" transform="translate(-23 -6.5)">
        <path
          d="M50 50V23"
          stroke="#1e293b"
          stroke-linecap="round"
          stroke-linejoin="round"
          stroke-width="4"
        />
        <circle cx="50" cy="16" fill="#1e293b" r="5.5" />
      </g>
      <path
        d="M24 40V13"
        stroke="#7dd3fc"
        stroke-linecap="round"
        stroke-linejoin="round"
        stroke-width="4"
      />
      <circle cx="24" cy="6" fill="#7dd3fc" r="5.5" />
    </g>
    <clipPath id="dbcrb-tower">
      <path d="M28 106V38a22 22 0 0 1 44 0v68Z" />
    </clipPath>
    <g id="body-tower-80380197">
      <g class="dbcr-t">
        <use href="#top-antenna-80380197" transform="translate(26 2)" />
      </g>
      <path
        d="M31 109.5v-68a22 22 0 0 1 44 0v68Z"
        fill="#1e293b"
        opacity=".15"
      />
      <path d="M28 106V38a22 22 0 0 1 44 0v68Z" fill="#c4b5fd" />
      <g clip-path="url(#dbcrb-tower)">
        <path
          d="M28 106V38a22 22 0 0 1 44 0v68Zm3.5 4.5v-68a22 22 0 0 1 44 0v68Z"
          fill="#ffffff"
          fill-rule="evenodd"
          opacity=".16"
        />
        <path
          d="M28 106V38a22 22 0 0 1 44 0v68Zm-3.5-4.5v-68a22 22 0 0 1 44 0v68Z"
          fill="#1e293b"
          fill-rule="evenodd"
          opacity=".1"
        />
      </g>
    </g>
    <g id="pattern-dotRow-80380197">
      <circle cx="6" cy="10" fill="#ffffff" opacity=".25" r="2.5" />
      <circle cx="16" cy="10" fill="#ffffff" opacity=".25" r="2.5" />
      <circle cx="26" cy="10" fill="#ffffff" opacity=".25" r="2.5" />
    </g>
    <g id="cheeks-freckles-80380197">
      <circle cx="2" cy="4" fill="#ffffff" opacity=".35" r="1.4" />
      <circle cx="6" cy="2" fill="#ffffff" opacity=".35" r="1.4" />
      <circle cx="4" cy="6.5" fill="#ffffff" opacity=".35" r="1.4" />
      <circle cx="42" cy="4" fill="#ffffff" opacity=".35" r="1.4" />
      <circle cx="38" cy="2" fill="#ffffff" opacity=".35" r="1.4" />
      <circle cx="40" cy="6.5" fill="#ffffff" opacity=".35" r="1.4" />
    </g>
    <g id="eyes-monoSleepy-80380197">
      <g class="dbcr-eb">
        <path d="M12 11a11 11 0 0 0 22 0Z" fill="#ffffff" />
        <path d="M19.5 11a3.5 3.5 0 0 0 7 0Z" fill="#1e293b" />
        <path
          d="M11 11h24"
          stroke="#1e293b"
          stroke-linecap="round"
          stroke-linejoin="round"
          stroke-width="3"
        />
      </g>
    </g>
    <g id="mouth-grin-80380197">
      <path d="M2 3a12 12 0 0 0 24 0Z" fill="#1e293b" />
      <path d="M8.5 9a5.5 5.5 0 0 0 11 0Z" fill="#fb7185" />
    </g>
    <g id="animation-none-80380197"></g>
    <clipPath id="clip-80380197">
      <rect height="100" rx="0" ry="0" width="100" />
    </clipPath>
  </defs>
  <g clip-path="url(#clip-80380197)">
    <rect fill="#4338ca" height="100" width="100" />
    <g class="dbcr-c">
      <use href="#body-tower-80380197" />
      <use href="#pattern-dotRow-80380197" transform="translate(34 75)" />
      <use href="#cheeks-freckles-80380197" transform="translate(28 53)" />
      <use href="#eyes-monoSleepy-80380197" transform="translate(27 36)" />
      <use href="#mouth-grin-80380197" transform="translate(36 60)" />
    </g>
    <use href="#animation-none-80380197" />
  </g>
</svg>
